<svg xmlns="http://www.w3.org/2000/svg" viewBox="0 0 64 64" fill="none">
	<defs>
		<linearGradient id="bg" x1="8" y1="6" x2="56" y2="58" gradientUnits="userSpaceOnUse">
			<stop offset="0" stop-color="#1c56ff"/>
			<stop offset="1" stop-color="#7a2dff"/>
		</linearGradient>
		<linearGradient id="trace" x1="11" y1="12" x2="53" y2="52" gradientUnits="userSpaceOnUse">
			<stop offset="0" stop-color="#9ec2ff"/>
			<stop offset="1" stop-color="#d0b0ff"/>
		</linearGradient>
		<filter id="glow" x="-20%" y="-20%" width="140%" height="140%" color-interpolation-filters="sRGB">
			<feGaussianBlur stdDeviation="1.4" result="blur"/>
			<feMerge>
				<feMergeNode in="blur"/>
				<feMergeNode in="SourceGraphic"/>
			</feMerge>
		</filter>
	</defs>

	<rect x="4" y="4" width="56" height="56" rx="14" fill="#0d1017"/>
	<rect x="5.5" y="5.5" width="53" height="53" rx="12.5" stroke="url(#bg)" stroke-opacity="0.95"/>

	<path d="M16 45V19h5v21h10v5H16Z" fill="url(#trace)" filter="url(#glow)"/>
	<path d="M34 45V19h4l8 12.5L54 19h4v26h-5V28.8L46 39.2h-.3L39 28.8V45h-5Z" fill="url(#trace)" filter="url(#glow)"/>

	<path d="M14 14.5h9.5M12 20.5h15" stroke="#6fa3ff" stroke-linecap="round" stroke-opacity="0.75"/>
	<path d="M50 49.5h-8.5M52 43.5H37" stroke="#b190ff" stroke-linecap="round" stroke-opacity="0.75"/>

	<circle cx="12" cy="20.5" r="1.7" fill="#1c56ff"/>
	<circle cx="27" cy="20.5" r="1.7" fill="#7a2dff"/>
	<circle cx="37" cy="43.5" r="1.7" fill="#1c56ff"/>
	<circle cx="52" cy="43.5" r="1.7" fill="#7a2dff"/>
</svg>